<svg xmlns="http://www.w3.org/2000/svg" viewBox="0 0 24 24" width="48" height="48" fill="none" stroke="#6200EE" stroke-width="1.5" stroke-linecap="round" stroke-linejoin="round">
  <!-- Game controller base -->
  <rect x="2" y="6" width="20" height="12" rx="2" ry="2" />
  
  <!-- D-pad -->
  <line x1="6" y1="12" x2="10" y2="12" />
  <line x1="8" y1="10" x2="8" y2="14" />
  
  <!-- Buttons -->
  <circle cx="17" cy="10" r="1" fill="#6200EE" />
  <circle cx="19" cy="12" r="1" fill="#6200EE" />
  <circle cx="17" cy="14" r="1" fill="#6200EE" />
  <circle cx="15" cy="12" r="1" fill="#6200EE" />
  
  <!-- AI/filter element -->
  <path d="M4 4l16 0" stroke="#03DAC6" />
  <path d="M6 2l0 4" stroke="#03DAC6" />
  <path d="M10 2l0 4" stroke="#03DAC6" />
  <path d="M14 2l0 4" stroke="#03DAC6" />
  <path d="M18 2l0 4" stroke="#03DAC6" />
  
  <!-- Data element at bottom -->
  <path d="M4 20h16" stroke="#BB86FC" />
  <path d="M5 18v4" stroke="#BB86FC" />
  <path d="M9 18v4" stroke="#BB86FC" />
  <path d="M13 18v4" stroke="#BB86FC" />
  <path d="M17 18v4" stroke="#BB86FC" />
  <path d="M19 18v4" stroke="#BB86FC" />
</svg>
